<svg id="Layer_1" enable-background="new 0 0 512.001 512.001" height="512" viewBox="0 0 512.001 512.001" width="512" xmlns="http://www.w3.org/2000/svg"><g><g clip-rule="evenodd" fill-rule="evenodd"><g fill="#ffc144"><ellipse cx="100.002" cy="369.999" rx="20" ry="20" transform="matrix(.975 -.224 .224 .975 -80.462 31.868)"/><ellipse cx="30" cy="430" rx="20" ry="20" transform="matrix(.734 -.68 .68 .734 -284.193 134.902)"/><ellipse cx="256.001" cy="482.002" rx="20" ry="20" transform="matrix(.973 -.23 .23 .973 -103.893 71.711)"/><ellipse cx="482.002" cy="430" rx="20" ry="20" transform="matrix(.707 -.707 .707 .707 -162.881 466.771)"/><ellipse cx="411.999" cy="369.999" rx="20" ry="20" transform="matrix(.739 -.674 .674 .739 -141.74 374.046)"/></g><g><path d="m146.001 240.001c0 60.5 10 110 110 110s110-49.5 110-110v-79.999c0-34.146-15.77-48.861-40.385-55.2-50.572 22.032-179.615-21.083-179.615 55.2z" fill="#ffdcd5"/><path d="m146.001 240.001v-50h-10-4.999c-8.106 0-15.344 3.91-19.919 9.937-3.186 4.196-5.081 9.419-5.081 15.063 0 13.75 11.25 25 25 25z" fill="#ffdcd5"/><path d="m136 190.001h10v-30c0-76.283 129.043-33.168 179.615-55.2 24.616 6.34 40.385 21.054 40.385 55.2v30h10 5c5.646 0 10.87 1.897 15.067 5.086 33.003-124.436-35.364-135.079-35.364-135.079-11.36-42.399-71.419-50.008-109.021-50.008-126.088 0-157.311 58.348-140.6 189.939 4.576-6.027 11.813-9.937 19.919-9.937h4.999z" fill="#6d91ac"/><path d="m366.001 190.001v50h15c13.75 0 25-11.25 25-25 0-8.104-3.908-15.339-9.932-19.915-4.197-3.188-9.422-5.085-15.068-5.085h-5z" fill="#ffdcd5"/></g></g><g><path d="m216.003 180.001h-.008c-5.522 0-9.996 4.477-9.996 10s4.481 10 10.004 10 10-4.477 10-10-4.477-10-10-10z"/><path d="m296.006 200.001c5.522 0 10-4.477 10-10s-4.478-10-10-10h-.008c-5.522 0-9.996 4.477-9.996 10s4.482 10 10.004 10z"/><path d="m282.173 281.634c5.201-1.858 7.911-7.58 6.053-12.781-1.858-5.202-7.58-7.911-12.781-6.053-5.159 1.843-10.528 3.497-19.443 3.497s-14.284-1.654-19.443-3.497c-5.2-1.859-10.923.851-12.781 6.053-1.858 5.201.852 10.923 6.053 12.781 7.835 2.799 15.284 4.663 26.172 4.663s18.335-1.864 26.17-4.663z"/><path d="m295.706 69.356c5.522 0 10-4.477 10-10s-4.478-10-10-10h-.007c-5.522 0-9.996 4.477-9.996 10s4.481 10 10.003 10z"/><path d="m482.001 400c-13.036 0-24.151 8.361-28.279 20h-131.178c-5.514 0-9.999-4.486-9.999-10v-57.236c8.704-2.688 16.445-6.133 23.25-10.344v7.58c0 16.542 13.458 30 30 30h17.924c4.128 11.639 15.243 20 28.28 20 16.542 0 30-13.458 30-30s-13.458-30-30-30c-13.036 0-24.152 8.361-28.28 20h-17.924c-5.514 0-10-4.486-10-10v-25.41c.231-.298.47-.588.697-.89 15.245-20.263 18.8-46.943 19.402-73.699h5.107c19.299 0 34.999-15.701 34.999-35 0-8.871-3.323-16.976-8.782-23.151 12.412-50.141 10.16-88.624-6.72-114.436-10.488-16.039-24.066-22.831-31.914-25.571-7.194-19.31-23.759-33.492-49.325-42.204-23.379-7.967-49.652-9.639-67.577-9.639-60.689 0-100.438 13.03-125.095 41.007-13.664 15.504-22.484 35.409-26.705 61.138-.001.008-.003.017-.004.025-4.188 25.548-3.832 56.86.836 95.326-2.99 5.154-4.712 11.13-4.712 17.506 0 19.299 15.701 35 35 35h5.107c.602 26.757 4.157 53.437 19.402 73.7.227.301.465.591.696.889v25.409c0 5.514-4.486 10-10 10h-17.924c-4.128-11.639-15.243-20-28.28-20-16.542 0-30 13.458-30 30s13.458 30 30 30c13.036 0 24.152-8.361 28.28-20h17.924c16.542 0 30-13.458 30-30v-7.581c6.805 4.211 14.546 7.656 23.25 10.344v57.237c0 5.514-4.485 10-9.999 10h-131.179c-4.128-11.639-15.243-20-28.28-20-16.542 0-29.999 13.458-29.999 30s13.457 30 29.999 30c13.036 0 24.152-8.361 28.28-20h131.178c16.542 0 29.999-13.458 29.999-30v-52.651c8.194 1.316 17.035 2.14 26.544 2.474v93.899c-11.639 4.128-19.999 15.243-19.999 28.279 0 16.542 13.457 30 29.999 30s30-13.458 30-30c0-13.036-8.361-24.151-20-28.279v-93.899c9.509-.334 18.351-1.158 26.545-2.474v52.651c0 16.542 13.457 30 29.999 30h131.178c4.128 11.639 15.243 20 28.279 20 16.542 0 30-13.458 30-30s-13.458-30-30-30zm-70.002-40c5.514 0 10 4.486 10 10s-4.486 10-10 10-10-4.486-10-10 4.487-10 10-10zm-311.997 20c-5.514 0-10-4.486-10-10s4.486-10 10-10 10 4.486 10 10-4.486 10-10 10zm-70.003 60c-5.513 0-9.999-4.486-9.999-10s4.485-10 9.999-10 10 4.486 10 10-4.486 10-10 10zm351.002-209.999h-5v-30h5c8.271 0 14.999 6.729 14.999 15s-6.728 15-14.999 15zm-265-15c0-8.271 6.729-15 15-15h4.999.001v30h-5c-8.271 0-15-6.729-15-15zm34.313-92.785c-9.497 9.383-14.313 22.096-14.313 37.785v20h-.001-4.999c-4.167 0-8.166.735-11.876 2.078-2.963-29.778-2.973-54.35.097-74.583 21.557-32.569 78.263-33.305 123.974-33.877 2.66-.034 5.279-.066 7.85-.105 5.522-.083 9.932-4.627 9.849-10.149s-4.625-9.933-10.149-9.849c-2.554.039-5.156.071-7.8.104-24.581.308-52.443.657-77.738 5.958-13.758 2.884-25.527 6.995-35.422 12.393 3.293-6.641 7.219-12.536 11.807-17.741 20.58-23.353 55.563-34.23 110.089-34.23 26.443 0 89.062 4.151 99.363 42.596 1.042 3.888 4.091 6.738 8.073 7.286 1.171.224 14.875 3.156 24.969 18.985 8.944 14.024 16.675 41.219 5.15 92.122-2.643-.64-5.399-.988-8.236-.988h-5v-20c0-35.361-15.665-56.585-47.891-64.885-2.159-.556-4.442-.374-6.488.516-15.868 6.913-43.166 6.583-69.568 6.266-39.432-.474-80.198-.966-101.74 20.318zm5.687 117.784v-79.999c0-10.288 2.737-17.994 8.369-23.558 13.03-12.875 40.655-14.687 69.989-14.687 5.782 0 11.637.07 17.453.141 28.149.34 54.821.661 74.378-6.556 21.123 6.372 29.811 19.53 29.811 44.661v79.998c0 56.66-7.363 100-100 100s-100-43.34-100-100zm99.999 252.001c-5.514 0-9.999-4.486-9.999-10s4.485-10 9.999-10 10 4.486 10 10c0 5.515-4.486 10-10 10zm226.001-52.001c-5.514 0-9.999-4.486-9.999-10s4.485-10 9.999-10 10 4.486 10 10-4.486 10-10 10z"/></g></g></svg>